<svg width="16" height="22" viewBox="0 0 16 22" fill="none" xmlns="http://www.w3.org/2000/svg">
<path d="M7.99997 22C9.9891 22 11.8968 21.2098 13.3033 19.8033C14.7098 18.3968 15.5 16.4891 15.5 14.5C15.5 13.634 15.27 12.803 15 12.03C13.333 13.677 12.067 14.5 11.2 14.5C15.195 7.5 13 4.5 6.99997 0.5C7.49997 5.5 4.20397 7.774 2.86197 9.037C1.7673 10.0667 1.00721 11.4015 0.680255 12.8683C0.353301 14.3352 0.474563 15.8664 1.02832 17.2635C1.58207 18.6606 2.54278 19.8592 3.78588 20.7037C5.02898 21.5483 6.49712 21.9999 7.99997 22ZM8.70997 4.235C11.951 6.985 11.967 9.122 9.46297 13.509C8.70197 14.842 9.66497 16.5 11.2 16.5C11.888 16.5 12.584 16.3 13.319 15.905C13.1011 16.728 12.6952 17.4892 12.1331 18.1286C11.5711 18.768 10.8683 19.2682 10.08 19.5899C9.29181 19.9115 8.43967 20.0458 7.59073 19.9821C6.74178 19.9184 5.91921 19.6585 5.18778 19.2229C4.45634 18.7873 3.83602 18.1878 3.37566 17.4717C2.91529 16.7556 2.62744 15.9424 2.53479 15.0961C2.44213 14.2498 2.5472 13.3936 2.84171 12.5948C3.13621 11.7961 3.61213 11.0766 4.23197 10.493C4.35797 10.375 4.99697 9.808 5.02497 9.783C5.44897 9.403 5.79797 9.066 6.14297 8.697C7.37297 7.379 8.25697 5.917 8.70897 4.235H8.70997Z" fill="#6d14c4"/>
</svg>
